<svg width="32" height="32" viewBox="0 0 32 32" fill="none" xmlns="http://www.w3.org/2000/svg">
<path d="M22.7618 8.22389C22.7618 9.03529 22.2208 9.57622 21.4094 9.57622H10.5906C9.77924 9.57622 9.2383 9.03529 9.2383 8.22389V2.13841C9.2383 1.32701 9.77924 0.786077 10.5906 0.786077H21.4094C22.2208 0.786077 22.7618 1.32701 22.7618 2.13841V8.22389Z" stroke="#6F7882" stroke-width="1.55" stroke-miterlimit="10" stroke-linecap="round" stroke-linejoin="round"/>
<path d="M13.7005 4.84312V5.51929" stroke="#6F7882" stroke-width="1.57211" stroke-miterlimit="10" stroke-linecap="round" stroke-linejoin="round"/>
<path d="M18.434 4.84312V5.51929" stroke="#6F7882" stroke-width="1.57211" stroke-miterlimit="10" stroke-linecap="round" stroke-linejoin="round"/>
<path d="M22.3052 15.7296C18.8786 19.1104 13.122 19.1104 9.69541 15.7296" stroke="#6F7882" stroke-width="1.57211" stroke-miterlimit="10" stroke-linecap="round" stroke-linejoin="round"/>
<path d="M26.6913 20.0572C20.7976 25.8722 11.2032 25.8722 5.30952 20.0572" stroke="#6F7882" stroke-width="1.57211" stroke-miterlimit="10" stroke-linecap="round" stroke-linejoin="round"/>
<path d="M31.2138 25.1956C22.7159 33.3096 9.28382 33.1744 0.785954 25.0604" stroke="#6F7882" stroke-width="1.57211" stroke-miterlimit="10" stroke-linecap="round" stroke-linejoin="round"/>
</svg>
