<svg width="20" height="22" viewBox="0 0 20 22" fill="none" xmlns="http://www.w3.org/2000/svg">
<path d="M13.5206 4.32659L9.96149 0.767442L6.40234 4.32659" stroke="#6F7882" stroke-width="1.53488" stroke-linecap="round" stroke-linejoin="round"/>
<path d="M4.91919 8.10824C4.91919 8.52122 4.75514 8.91728 4.46312 9.2093C4.1711 9.50131 3.77504 9.66537 3.36206 9.66537H2.32457C1.91159 9.66537 1.51553 9.50131 1.22351 9.2093C0.931496 8.91728 0.767442 8.52122 0.767442 8.10824C0.767442 7.69526 0.931496 7.2992 1.22351 7.00718C1.51553 6.71516 1.91159 6.55111 2.32457 6.55111H3.36206C3.77504 6.55111 4.1711 6.71516 4.46312 7.00718C4.75514 7.2992 4.91919 7.69526 4.91919 8.10824Z" stroke="#6F7882" stroke-width="1.5" stroke-linecap="round" stroke-linejoin="round"/>
<path d="M12.0375 8.10824C12.0375 8.52122 11.8735 8.91728 11.5814 9.2093C11.2894 9.50131 10.8934 9.66537 10.4804 9.66537H9.44289C9.02992 9.66537 8.63386 9.50131 8.34184 9.2093C8.04982 8.91728 7.88576 8.52122 7.88576 8.10824C7.88576 7.69526 8.04982 7.2992 8.34184 7.00718C8.63386 6.71516 9.02992 6.55111 9.44289 6.55111H10.4804C10.8934 6.55111 11.2894 6.71516 11.5814 7.00718C11.8735 7.2992 12.0375 7.69526 12.0375 8.10824Z" stroke="#6F7882" stroke-width="1.5" stroke-linecap="round" stroke-linejoin="round"/>
<path d="M19.1558 8.10824C19.1558 8.52122 18.9918 8.91728 18.6998 9.2093C18.4077 9.50131 18.0117 9.66537 17.5987 9.66537H16.5612C16.1482 9.66537 15.7522 9.50131 15.4602 9.2093C15.1681 8.91728 15.0041 8.52122 15.0041 8.10824C15.0041 7.69526 15.1681 7.2992 15.4602 7.00718C15.7522 6.71516 16.1482 6.55111 16.5612 6.55111H17.5987C18.0117 6.55111 18.4077 6.71516 18.6998 7.00718C18.9918 7.2992 19.1558 7.69526 19.1558 8.10824Z" stroke="#6F7882" stroke-width="1.5" stroke-linecap="round" stroke-linejoin="round"/>
<path d="M4.91919 13.8918C4.91919 14.3048 4.75514 14.7008 4.46312 14.9928C4.1711 15.2849 3.77504 15.4489 3.36206 15.4489H2.32457C1.91159 15.4489 1.51553 15.2849 1.22351 14.9928C0.931496 14.7008 0.767442 14.3048 0.767442 13.8918C0.767442 13.4788 0.931496 13.0827 1.22351 12.7907C1.51553 12.4987 1.91159 12.3347 2.32457 12.3347H3.36206C3.77504 12.3347 4.1711 12.4987 4.46312 12.7907C4.75514 13.0827 4.91919 13.4788 4.91919 13.8918Z" stroke="#6F7882" stroke-width="1.5" stroke-linecap="round" stroke-linejoin="round"/>
<path d="M12.0375 13.8918C12.0375 14.3048 11.8735 14.7008 11.5814 14.9928C11.2894 15.2849 10.8934 15.4489 10.4804 15.4489H9.44289C9.02992 15.4489 8.63386 15.2849 8.34184 14.9928C8.04982 14.7008 7.88576 14.3048 7.88576 13.8918C7.88576 13.4788 8.04982 13.0827 8.34184 12.7907C8.63386 12.4987 9.02992 12.3347 9.44289 12.3347H10.4804C10.8934 12.3347 11.2894 12.4987 11.5814 12.7907C11.8735 13.0827 12.0375 13.4788 12.0375 13.8918Z" stroke="#6F7882" stroke-width="1.5" stroke-linecap="round" stroke-linejoin="round"/>
<path d="M19.1558 13.8918C19.1558 14.3048 18.9918 14.7008 18.6998 14.9928C18.4077 15.2849 18.0117 15.4489 17.5987 15.4489H16.5612C16.1482 15.4489 15.7522 15.2849 15.4602 14.9928C15.1681 14.7008 15.0041 14.3048 15.0041 13.8918C15.0041 13.4788 15.1681 13.0827 15.4602 12.7907C15.7522 12.4987 16.1482 12.3347 16.5612 12.3347H17.5987C18.0117 12.3347 18.4077 12.4987 18.6998 12.7907C18.9918 13.0827 19.1558 13.4788 19.1558 13.8918Z" stroke="#6F7882" stroke-width="1.5" stroke-linecap="round" stroke-linejoin="round"/>
<path d="M4.91919 19.6755C4.91919 20.0884 4.75514 20.4845 4.46312 20.7765C4.1711 21.0685 3.77504 21.2326 3.36206 21.2326H2.32457C1.91159 21.2326 1.51553 21.0685 1.22351 20.7765C0.931496 20.4845 0.767442 20.0884 0.767442 19.6755C0.767442 19.2625 0.931496 18.8664 1.22351 18.5744C1.51553 18.2824 1.91159 18.1183 2.32457 18.1183H3.36206C3.77504 18.1183 4.1711 18.2824 4.46312 18.5744C4.75514 18.8664 4.91919 19.2625 4.91919 19.6755Z" stroke="#6F7882" stroke-width="1.5" stroke-linecap="round" stroke-linejoin="round"/>
<path d="M12.0375 19.6755C12.0375 20.0884 11.8735 20.4845 11.5814 20.7765C11.2894 21.0685 10.8934 21.2326 10.4804 21.2326H9.44289C9.02992 21.2326 8.63386 21.0685 8.34184 20.7765C8.04982 20.4845 7.88576 20.0884 7.88576 19.6755C7.88576 19.2625 8.04982 18.8664 8.34184 18.5744C8.63386 18.2824 9.02992 18.1183 9.44289 18.1183H10.4804C10.8934 18.1183 11.2894 18.2824 11.5814 18.5744C11.8735 18.8664 12.0375 19.2625 12.0375 19.6755Z" stroke="#6F7882" stroke-width="1.5" stroke-linecap="round" stroke-linejoin="round"/>
<path d="M19.1558 19.6755C19.1558 20.0884 18.9918 20.4845 18.6998 20.7765C18.4077 21.0685 18.0117 21.2326 17.5987 21.2326H16.5612C16.1482 21.2326 15.7522 21.0685 15.4602 20.7765C15.1681 20.4845 15.0041 20.0884 15.0041 19.6755C15.0041 19.2625 15.1681 18.8664 15.4602 18.5744C15.7522 18.2824 16.1482 18.1183 16.5612 18.1183H17.5987C18.0117 18.1183 18.4077 18.2824 18.6998 18.5744C18.9918 18.8664 19.1558 19.2625 19.1558 19.6755Z" stroke="#6F7882" stroke-width="1.5" stroke-linecap="round" stroke-linejoin="round"/>
</svg>
